<svg xmlns="http://www.w3.org/2000/svg" viewBox="0 0 48 48" role="img" aria-label="Merafex">
  <rect width="48" height="48" rx="6" fill="#ffffff"/>
  <svg x="0" y="0" width="48" height="48" viewBox="-1 -57 426 600" preserveAspectRatio="xMidYMid meet">
    <path fill="#0a2550" d="M421.01.257c1.15 2.041.7 348.991.83 377.376l-96.99.064c-.92-68.826-.07-139.74-.07-208.761-26.45 14.538-55.76 32.62-81.93 48.234l.06 48.424 60.01-35.142c-.29 12.188-.1 24.838-.09 37.063-13.3 9.604-44.22 25.885-60.04 35.663l.12 20.599c5.56 3.695 11.67 7.388 17.36 10.951l-.03 14.227c-23.05 13.075-23 16.787-.17 30.596l.09 13.78c-22.99 13.441-22.94 16.744-.19 30.818l.21 24.631c-15.41 10.703-33.83 25.495-49.22 37.076-1.66-93.868-.39-193.106-.1-287.333 15.97-10.233 35.57-21.216 52.05-30.927l94.8-55.642c-1.64 21.202-.22 57.264-.24 79.588-.22 51.171-.17 102.343.17 153.514l31.63.261c-.75-34.865-.22-71.289-.21-106.251l-.03-182.437c-58.56 34.448-119.88 69.391-177.78 104.647-10.33-5.286-24.803-14.346-34.987-20.337l-65.848-38.672c-25.131-15.377-52.046-30.682-77.588-45.6l.063 288.401q16.004.237 32.01.247c-.947-77.141-.169-155.574-.125-232.801 10.974 5.139 32.052 18.414 43.341 25.06l86.094 50.86c.67 32.186.14 65.993.12 98.319l.04 187.376c-10.86-7.764-21.757-16.739-32.241-25.084-1.091-25.535-.191-57.424-.198-83.47l.038-158.172c-18.071-12.131-45.604-27.317-65.001-38.651.828 69.204-.026 139.648.183 209.057-31.718-.605-65.357-.212-97.149-.175C1.49 323.848.29 265.929.32 211.808Q1.074 105.903 0 0c23.769 13.188 48.15 28.103 71.7 41.903l139.49 81.857C279.62 82.847 351.87 39.824 421.01.257"/>
  </svg>
</svg>
